<svg width="457" height="456" viewBox="0 0 457 456" fill="none" xmlns="http://www.w3.org/2000/svg">
<g clip-path="url(#clip0_526_1409)">
<g clip-path="url(#clip1_526_1409)">
<path d="M137.567 455.795C62.0462 455.795 0.828369 394.577 0.828369 319.057V136.739C0.828369 61.2179 62.0462 0 137.567 0H319.885C395.406 0 456.624 61.2179 456.624 136.739V319.057C456.624 394.577 395.406 455.795 319.885 455.795H137.567Z" fill="white"/>
<g clip-path="url(#clip2_526_1409)">
<g clip-path="url(#clip3_526_1409)">
<path d="M185.566 294.24C186.134 294.877 186.829 295.368 187.594 295.707C197.515 319.15 215.39 343.967 247.169 363.749C248.135 364.351 249.211 364.635 250.27 364.635C252.235 364.635 254.156 363.656 255.27 361.864C256.986 359.099 256.142 355.476 253.384 353.76C223.006 334.849 206.352 311.385 197.352 289.482C208.497 270.053 213.639 242.983 211.518 214.273C209.228 183.495 198.954 155.809 183.341 138.314C182.117 136.947 180.321 136.245 178.514 136.366C176.691 136.501 175.033 137.477 174.026 139.01C161.172 158.626 155.109 187.526 157.386 218.298C159.677 249.052 169.943 276.734 185.566 294.24ZM179.736 152.712C190.629 168.318 197.989 190.962 199.788 215.142C201.362 236.471 198.477 257.233 191.968 273.534C184.521 245.717 188.182 223.467 188.508 221.678C189.082 218.485 186.968 215.422 183.771 214.841C180.573 214.242 177.511 216.374 176.93 219.575C176.86 219.934 174.421 234.419 176.888 255.056C172.847 243.582 170.116 230.762 169.123 217.426C167.334 193.246 171.258 169.761 179.736 152.712Z" fill="#51A064"/>
<path d="M247.29 244.579C246.363 266.347 247.353 290.752 251.325 317.898C251.751 320.825 254.266 322.926 257.138 322.926C257.422 322.926 257.706 322.905 257.996 322.863C261.214 322.389 263.436 319.403 262.965 316.192C258.989 289.074 258.152 264.745 259.266 243.146C275.924 228.049 289.184 203.717 295.952 175.585C303.156 145.578 301.817 116.079 292.287 94.653C291.544 92.9817 290.063 91.7499 288.287 91.3243C286.509 90.8918 284.63 91.3208 283.211 92.4731C264.972 107.248 250.38 132.917 243.183 162.906C235.979 192.896 237.318 222.392 246.854 243.831C246.965 244.098 247.135 244.337 247.29 244.579ZM288.495 131.546C289.177 144.564 287.893 158.73 284.509 172.837C279.751 192.637 271.27 210.679 260.813 224.06C265.896 178.689 279.509 147.726 288.495 131.546ZM254.623 165.65C260.28 142.086 271.18 120.923 284.453 107.262C285.049 109.172 285.54 111.179 286.007 113.207C279.772 121.823 259.266 153.612 250.723 208.945C249.792 195.388 251.062 180.474 254.623 165.65Z" fill="#51A064"/>
</g>
</g>
</g>
</g>
<defs>
<clipPath id="clip0_526_1409">
<rect width="455.794" height="455.794" fill="white" transform="translate(0.828369)"/>
</clipPath>
<clipPath id="clip1_526_1409">
<rect width="455.794" height="455.794" fill="white" transform="translate(0.828369)"/>
</clipPath>
<clipPath id="clip2_526_1409">
<rect width="143.619" height="273.476" fill="white" transform="translate(156.916 91.1592)"/>
</clipPath>
<clipPath id="clip3_526_1409">
<rect width="143.619" height="273.476" fill="white" transform="translate(156.916 91.1592)"/>
</clipPath>
</defs>
</svg>
